<?xml version="1.0" encoding="UTF-8" standalone="no"?><svg xmlns="http://www.w3.org/2000/svg" xmlns:xlink="http://www.w3.org/1999/xlink" contentScriptType="text/ecmascript" fill="#000000" width="438.4" zoomAndPan="magnify" contentStyleType="text/css" viewBox="0.0 0.0 438.4 185.0" height="185" preserveAspectRatio="xMidYMid meet" version="1"><g id="change1_1"><path fill="#f3f7f9" d="M24.02,46.96h2.47v137.99h-2.47V46.96z M45.57,184.95h2.47V17.78h-2.47V184.95z M67.12,184.95h2.47V4.9h-2.47 V184.95z M88.67,184.95h2.47V0h-2.47V184.95z M110.22,184.95h2.47V9.26h-2.47V184.95z M131.77,184.95h2.47V27.13h-2.47V184.95z M153.32,184.95h2.47V62.88h-2.47V184.95z M174.87,184.95h2.47v-81.08h-2.47V184.95z M196.41,184.95h2.47v-64.61h-2.47V184.95z M239.51,184.95h2.47v-64.32h-2.47V184.95z M261.06,184.95h2.47v-74.61h-2.47V184.95z M282.61,184.95h2.47V94.17h-2.47V184.95z M304.16,184.95h2.47V73.1h-2.47V184.95z M325.71,184.95h2.47V62.68h-2.47V184.95z M347.26,184.95h2.47V56.48h-2.47V184.95z M368.81,184.95h2.47V63.19h-2.47V184.95z M390.36,184.95h2.47V73.58h-2.47V184.95z M411.91,184.95h2.47V92.89h-2.47V184.95z M0,60.21v124.74h7.42V60.21H0z M215.49,184.95h7.42v-64.32h-7.42V184.95z M430.98,106.06v78.89h7.42v-78.89H430.98z"/></g></svg>